<?xml version="1.0" standalone="no"?>
<svg xmlns:xlink="http://www.w3.org/1999/xlink" id="wave" style="transform:rotate(0deg); transition: 0.3s" viewBox="0 0 1440 200" version="1.1" xmlns="http://www.w3.org/2000/svg"><defs><linearGradient id="sw-gradient-0" x1="0" x2="0" y1="1" y2="0"><stop stop-color="rgba(3, 37, 76, 1)" offset="0%"/><stop stop-color="rgba(17, 103, 177, 1)" offset="100%"/></linearGradient></defs><path style="transform:translate(0, 0px); opacity:1" fill="url(#sw-gradient-0)" d="M0,20L80,36.7C160,53,320,87,480,83.3C640,80,800,40,960,33.3C1120,27,1280,53,1440,80C1600,107,1760,133,1920,130C2080,127,2240,93,2400,83.3C2560,73,2720,87,2880,93.3C3040,100,3200,100,3360,83.3C3520,67,3680,33,3840,23.3C4000,13,4160,27,4320,36.7C4480,47,4640,53,4800,46.7C4960,40,5120,20,5280,36.7C5440,53,5600,107,5760,123.3C5920,140,6080,120,6240,123.3C6400,127,6560,153,6720,146.7C6880,140,7040,100,7200,93.3C7360,87,7520,113,7680,133.3C7840,153,8000,167,8160,170C8320,173,8480,167,8640,140C8800,113,8960,67,9120,40C9280,13,9440,7,9600,33.3C9760,60,9920,120,10080,123.3C10240,127,10400,73,10560,46.7C10720,20,10880,20,11040,46.7C11200,73,11360,127,11440,153.3L11520,180L11520,200L11440,200C11360,200,11200,200,11040,200C10880,200,10720,200,10560,200C10400,200,10240,200,10080,200C9920,200,9760,200,9600,200C9440,200,9280,200,9120,200C8960,200,8800,200,8640,200C8480,200,8320,200,8160,200C8000,200,7840,200,7680,200C7520,200,7360,200,7200,200C7040,200,6880,200,6720,200C6560,200,6400,200,6240,200C6080,200,5920,200,5760,200C5600,200,5440,200,5280,200C5120,200,4960,200,4800,200C4640,200,4480,200,4320,200C4160,200,4000,200,3840,200C3680,200,3520,200,3360,200C3200,200,3040,200,2880,200C2720,200,2560,200,2400,200C2240,200,2080,200,1920,200C1760,200,1600,200,1440,200C1280,200,1120,200,960,200C800,200,640,200,480,200C320,200,160,200,80,200L0,200Z"/></svg>