<?xml version="1.0" standalone="no"?>
<svg xmlns:xlink="http://www.w3.org/1999/xlink" id="wave" style="transform:rotate(180deg); transition: 0.3s" viewBox="0 0 1440 160" version="1.1" xmlns="http://www.w3.org/2000/svg"><defs><linearGradient id="sw-gradient-0" x1="0" x2="0" y1="1" y2="0"><stop stop-color="rgba(3, 37, 76, 1)" offset="0%"/><stop stop-color="rgba(31, 107, 173, 1)" offset="100%"/></linearGradient></defs><path style="transform:translate(0, 0px); opacity:1" fill="url(#sw-gradient-0)" d="M0,96L60,93.3C120,91,240,85,360,88C480,91,600,101,720,96C840,91,960,69,1080,53.3C1200,37,1320,27,1440,34.7C1560,43,1680,69,1800,82.7C1920,96,2040,96,2160,93.3C2280,91,2400,85,2520,72C2640,59,2760,37,2880,42.7C3000,48,3120,80,3240,93.3C3360,107,3480,101,3600,93.3C3720,85,3840,75,3960,69.3C4080,64,4200,64,4320,53.3C4440,43,4560,21,4680,34.7C4800,48,4920,96,5040,120C5160,144,5280,144,5400,138.7C5520,133,5640,123,5760,106.7C5880,91,6000,69,6120,53.3C6240,37,6360,27,6480,40C6600,53,6720,91,6840,96C6960,101,7080,75,7200,72C7320,69,7440,91,7560,101.3C7680,112,7800,112,7920,114.7C8040,117,8160,123,8280,106.7C8400,91,8520,53,8580,34.7L8640,16L8640,160L8580,160C8520,160,8400,160,8280,160C8160,160,8040,160,7920,160C7800,160,7680,160,7560,160C7440,160,7320,160,7200,160C7080,160,6960,160,6840,160C6720,160,6600,160,6480,160C6360,160,6240,160,6120,160C6000,160,5880,160,5760,160C5640,160,5520,160,5400,160C5280,160,5160,160,5040,160C4920,160,4800,160,4680,160C4560,160,4440,160,4320,160C4200,160,4080,160,3960,160C3840,160,3720,160,3600,160C3480,160,3360,160,3240,160C3120,160,3000,160,2880,160C2760,160,2640,160,2520,160C2400,160,2280,160,2160,160C2040,160,1920,160,1800,160C1680,160,1560,160,1440,160C1320,160,1200,160,1080,160C960,160,840,160,720,160C600,160,480,160,360,160C240,160,120,160,60,160L0,160Z"/></svg>