<?xml version="1.0" standalone="no"?>
<svg xmlns:xlink="http://www.w3.org/1999/xlink" id="wave" style="transform:rotate(0deg); transition: 0.3s" viewBox="0 0 1440 280" version="1.1" xmlns="http://www.w3.org/2000/svg"><defs><linearGradient id="sw-gradient-0" x1="0" x2="0" y1="1" y2="0"><stop stop-color="rgba(238, 238, 238, 1)" offset="0%"/><stop stop-color="rgba(248.525, 248.525, 248.525, 1)" offset="100%"/></linearGradient></defs><path style="transform:translate(0, 0px); opacity:1" fill="url(#sw-gradient-0)" d="M0,84L60,79.3C120,75,240,65,360,70C480,75,600,93,720,102.7C840,112,960,112,1080,116.7C1200,121,1320,131,1440,121.3C1560,112,1680,84,1800,74.7C1920,65,2040,75,2160,93.3C2280,112,2400,140,2520,144.7C2640,149,2760,131,2880,102.7C3000,75,3120,37,3240,46.7C3360,56,3480,112,3600,149.3C3720,187,3840,205,3960,210C4080,215,4200,205,4320,200.7C4440,196,4560,196,4680,172.7C4800,149,4920,103,5040,79.3C5160,56,5280,56,5400,65.3C5520,75,5640,93,5760,112C5880,131,6000,149,6120,163.3C6240,177,6360,187,6480,182C6600,177,6720,159,6840,144.7C6960,131,7080,121,7200,107.3C7320,93,7440,75,7560,93.3C7680,112,7800,168,7920,172.7C8040,177,8160,131,8280,126C8400,121,8520,159,8580,177.3L8640,196L8640,280L8580,280C8520,280,8400,280,8280,280C8160,280,8040,280,7920,280C7800,280,7680,280,7560,280C7440,280,7320,280,7200,280C7080,280,6960,280,6840,280C6720,280,6600,280,6480,280C6360,280,6240,280,6120,280C6000,280,5880,280,5760,280C5640,280,5520,280,5400,280C5280,280,5160,280,5040,280C4920,280,4800,280,4680,280C4560,280,4440,280,4320,280C4200,280,4080,280,3960,280C3840,280,3720,280,3600,280C3480,280,3360,280,3240,280C3120,280,3000,280,2880,280C2760,280,2640,280,2520,280C2400,280,2280,280,2160,280C2040,280,1920,280,1800,280C1680,280,1560,280,1440,280C1320,280,1200,280,1080,280C960,280,840,280,720,280C600,280,480,280,360,280C240,280,120,280,60,280L0,280Z"/><defs><linearGradient id="sw-gradient-1" x1="0" x2="0" y1="1" y2="0"><stop stop-color="rgba(250.802, 250.802, 250.802, 0.9333333333333333)" offset="0%"/><stop stop-color="rgba(230.311, 230.311, 230.311, 1)" offset="100%"/></linearGradient></defs><path style="transform:translate(0, 50px); opacity:0.9" fill="url(#sw-gradient-1)" d="M0,28L60,46.7C120,65,240,103,360,107.3C480,112,600,84,720,79.3C840,75,960,93,1080,116.7C1200,140,1320,168,1440,163.3C1560,159,1680,121,1800,93.3C1920,65,2040,47,2160,56C2280,65,2400,103,2520,112C2640,121,2760,103,2880,84C3000,65,3120,47,3240,51.3C3360,56,3480,84,3600,93.3C3720,103,3840,93,3960,93.3C4080,93,4200,103,4320,130.7C4440,159,4560,205,4680,196C4800,187,4920,121,5040,98C5160,75,5280,93,5400,88.7C5520,84,5640,56,5760,37.3C5880,19,6000,9,6120,4.7C6240,0,6360,0,6480,14C6600,28,6720,56,6840,70C6960,84,7080,84,7200,98C7320,112,7440,140,7560,130.7C7680,121,7800,75,7920,88.7C8040,103,8160,177,8280,177.3C8400,177,8520,103,8580,65.3L8640,28L8640,280L8580,280C8520,280,8400,280,8280,280C8160,280,8040,280,7920,280C7800,280,7680,280,7560,280C7440,280,7320,280,7200,280C7080,280,6960,280,6840,280C6720,280,6600,280,6480,280C6360,280,6240,280,6120,280C6000,280,5880,280,5760,280C5640,280,5520,280,5400,280C5280,280,5160,280,5040,280C4920,280,4800,280,4680,280C4560,280,4440,280,4320,280C4200,280,4080,280,3960,280C3840,280,3720,280,3600,280C3480,280,3360,280,3240,280C3120,280,3000,280,2880,280C2760,280,2640,280,2520,280C2400,280,2280,280,2160,280C2040,280,1920,280,1800,280C1680,280,1560,280,1440,280C1320,280,1200,280,1080,280C960,280,840,280,720,280C600,280,480,280,360,280C240,280,120,280,60,280L0,280Z"/><defs><linearGradient id="sw-gradient-2" x1="0" x2="0" y1="1" y2="0"><stop stop-color="rgba(255, 255, 255, 1)" offset="0%"/><stop stop-color="rgba(221.204, 221.204, 221.204, 1)" offset="100%"/></linearGradient></defs><path style="transform:translate(0, 100px); opacity:0.8" fill="url(#sw-gradient-2)" d="M0,196L60,191.3C120,187,240,177,360,168C480,159,600,149,720,130.7C840,112,960,84,1080,93.3C1200,103,1320,149,1440,177.3C1560,205,1680,215,1800,191.3C1920,168,2040,112,2160,107.3C2280,103,2400,149,2520,163.3C2640,177,2760,159,2880,163.3C3000,168,3120,196,3240,186.7C3360,177,3480,131,3600,107.3C3720,84,3840,84,3960,79.3C4080,75,4200,65,4320,88.7C4440,112,4560,168,4680,163.3C4800,159,4920,93,5040,98C5160,103,5280,177,5400,182C5520,187,5640,121,5760,93.3C5880,65,6000,75,6120,74.7C6240,75,6360,65,6480,60.7C6600,56,6720,56,6840,65.3C6960,75,7080,93,7200,84C7320,75,7440,37,7560,42C7680,47,7800,93,7920,135.3C8040,177,8160,215,8280,210C8400,205,8520,159,8580,135.3L8640,112L8640,280L8580,280C8520,280,8400,280,8280,280C8160,280,8040,280,7920,280C7800,280,7680,280,7560,280C7440,280,7320,280,7200,280C7080,280,6960,280,6840,280C6720,280,6600,280,6480,280C6360,280,6240,280,6120,280C6000,280,5880,280,5760,280C5640,280,5520,280,5400,280C5280,280,5160,280,5040,280C4920,280,4800,280,4680,280C4560,280,4440,280,4320,280C4200,280,4080,280,3960,280C3840,280,3720,280,3600,280C3480,280,3360,280,3240,280C3120,280,3000,280,2880,280C2760,280,2640,280,2520,280C2400,280,2280,280,2160,280C2040,280,1920,280,1800,280C1680,280,1560,280,1440,280C1320,280,1200,280,1080,280C960,280,840,280,720,280C600,280,480,280,360,280C240,280,120,280,60,280L0,280Z"/></svg>