<?xml version="1.0" standalone="no"?>
<svg xmlns:xlink="http://www.w3.org/1999/xlink" id="wave" style="transform:rotate(0deg); transition: 0.3s" viewBox="0 0 1440 250" version="1.1" xmlns="http://www.w3.org/2000/svg"><defs><linearGradient id="sw-gradient-0" x1="0" x2="0" y1="1" y2="0"><stop stop-color="rgba(17, 103, 177, 1)" offset="0%"/><stop stop-color="rgba(255, 255, 255, 1)" offset="100%"/></linearGradient></defs><path style="transform:translate(0, 0px); opacity:1" fill="url(#sw-gradient-0)" d="M0,25L120,37.5C240,50,480,75,720,91.7C960,108,1200,117,1440,137.5C1680,158,1920,192,2160,183.3C2400,175,2640,125,2880,112.5C3120,100,3360,125,3600,133.3C3840,142,4080,133,4320,108.3C4560,83,4800,42,5040,58.3C5280,75,5520,150,5760,154.2C6000,158,6240,92,6480,66.7C6720,42,6960,58,7200,83.3C7440,108,7680,142,7920,162.5C8160,183,8400,192,8640,187.5C8880,183,9120,167,9360,141.7C9600,117,9840,83,10080,66.7C10320,50,10560,50,10800,70.8C11040,92,11280,133,11520,150C11760,167,12000,158,12240,141.7C12480,125,12720,100,12960,91.7C13200,83,13440,92,13680,87.5C13920,83,14160,67,14400,50C14640,33,14880,17,15120,25C15360,33,15600,67,15840,70.8C16080,75,16320,50,16560,33.3C16800,17,17040,8,17160,4.2L17280,0L17280,250L17160,250C17040,250,16800,250,16560,250C16320,250,16080,250,15840,250C15600,250,15360,250,15120,250C14880,250,14640,250,14400,250C14160,250,13920,250,13680,250C13440,250,13200,250,12960,250C12720,250,12480,250,12240,250C12000,250,11760,250,11520,250C11280,250,11040,250,10800,250C10560,250,10320,250,10080,250C9840,250,9600,250,9360,250C9120,250,8880,250,8640,250C8400,250,8160,250,7920,250C7680,250,7440,250,7200,250C6960,250,6720,250,6480,250C6240,250,6000,250,5760,250C5520,250,5280,250,5040,250C4800,250,4560,250,4320,250C4080,250,3840,250,3600,250C3360,250,3120,250,2880,250C2640,250,2400,250,2160,250C1920,250,1680,250,1440,250C1200,250,960,250,720,250C480,250,240,250,120,250L0,250Z"/><defs><linearGradient id="sw-gradient-1" x1="0" x2="0" y1="1" y2="0"><stop stop-color="rgba(102.863, 108.678, 159.731, 1)" offset="0%"/><stop stop-color="rgba(67.238, 167.128, 253.079, 1)" offset="100%"/></linearGradient></defs><path style="transform:translate(0, 50px); opacity:0.9" fill="url(#sw-gradient-1)" d="M0,150L120,129.2C240,108,480,67,720,75C960,83,1200,142,1440,141.7C1680,142,1920,83,2160,62.5C2400,42,2640,58,2880,75C3120,92,3360,108,3600,95.8C3840,83,4080,42,4320,33.3C4560,25,4800,50,5040,62.5C5280,75,5520,75,5760,95.8C6000,117,6240,158,6480,175C6720,192,6960,183,7200,154.2C7440,125,7680,75,7920,66.7C8160,58,8400,92,8640,116.7C8880,142,9120,158,9360,150C9600,142,9840,108,10080,108.3C10320,108,10560,142,10800,129.2C11040,117,11280,58,11520,45.8C11760,33,12000,67,12240,91.7C12480,117,12720,133,12960,145.8C13200,158,13440,167,13680,162.5C13920,158,14160,142,14400,120.8C14640,100,14880,75,15120,83.3C15360,92,15600,133,15840,162.5C16080,192,16320,208,16560,179.2C16800,150,17040,75,17160,37.5L17280,0L17280,250L17160,250C17040,250,16800,250,16560,250C16320,250,16080,250,15840,250C15600,250,15360,250,15120,250C14880,250,14640,250,14400,250C14160,250,13920,250,13680,250C13440,250,13200,250,12960,250C12720,250,12480,250,12240,250C12000,250,11760,250,11520,250C11280,250,11040,250,10800,250C10560,250,10320,250,10080,250C9840,250,9600,250,9360,250C9120,250,8880,250,8640,250C8400,250,8160,250,7920,250C7680,250,7440,250,7200,250C6960,250,6720,250,6480,250C6240,250,6000,250,5760,250C5520,250,5280,250,5040,250C4800,250,4560,250,4320,250C4080,250,3840,250,3600,250C3360,250,3120,250,2880,250C2640,250,2400,250,2160,250C1920,250,1680,250,1440,250C1200,250,960,250,720,250C480,250,240,250,120,250L0,250Z"/><defs><linearGradient id="sw-gradient-2" x1="0" x2="0" y1="1" y2="0"><stop stop-color="rgba(17, 103, 177, 1)" offset="0%"/><stop stop-color="rgba(17, 103, 177, 1)" offset="100%"/></linearGradient></defs><path style="transform:translate(0, 100px); opacity:0.8" fill="url(#sw-gradient-2)" d="M0,50L120,66.7C240,83,480,117,720,108.3C960,100,1200,50,1440,50C1680,50,1920,100,2160,125C2400,150,2640,150,2880,133.3C3120,117,3360,83,3600,83.3C3840,83,4080,117,4320,120.8C4560,125,4800,100,5040,100C5280,100,5520,125,5760,116.7C6000,108,6240,67,6480,50C6720,33,6960,42,7200,75C7440,108,7680,167,7920,195.8C8160,225,8400,225,8640,195.8C8880,167,9120,108,9360,75C9600,42,9840,33,10080,29.2C10320,25,10560,25,10800,50C11040,75,11280,125,11520,120.8C11760,117,12000,58,12240,58.3C12480,58,12720,117,12960,141.7C13200,167,13440,158,13680,133.3C13920,108,14160,67,14400,66.7C14640,67,14880,108,15120,104.2C15360,100,15600,50,15840,25C16080,0,16320,0,16560,37.5C16800,75,17040,150,17160,187.5L17280,225L17280,250L17160,250C17040,250,16800,250,16560,250C16320,250,16080,250,15840,250C15600,250,15360,250,15120,250C14880,250,14640,250,14400,250C14160,250,13920,250,13680,250C13440,250,13200,250,12960,250C12720,250,12480,250,12240,250C12000,250,11760,250,11520,250C11280,250,11040,250,10800,250C10560,250,10320,250,10080,250C9840,250,9600,250,9360,250C9120,250,8880,250,8640,250C8400,250,8160,250,7920,250C7680,250,7440,250,7200,250C6960,250,6720,250,6480,250C6240,250,6000,250,5760,250C5520,250,5280,250,5040,250C4800,250,4560,250,4320,250C4080,250,3840,250,3600,250C3360,250,3120,250,2880,250C2640,250,2400,250,2160,250C1920,250,1680,250,1440,250C1200,250,960,250,720,250C480,250,240,250,120,250L0,250Z"/></svg>