<?xml version="1.0" standalone="no"?>
<svg xmlns:xlink="http://www.w3.org/1999/xlink" id="wave" style="transform:rotate(180deg); transition: 0.3s" viewBox="0 0 1440 250" version="1.1" xmlns="http://www.w3.org/2000/svg"><defs><linearGradient id="sw-gradient-0" x1="0" x2="0" y1="1" y2="0"><stop stop-color="rgba(17, 103, 177, 1)" offset="0%"/><stop stop-color="rgba(255, 255, 255, 1)" offset="100%"/></linearGradient></defs><path style="transform:translate(0, 0px); opacity:1" fill="url(#sw-gradient-0)" d="M0,50L120,66.7C240,83,480,117,720,112.5C960,108,1200,67,1440,75C1680,83,1920,142,2160,158.3C2400,175,2640,150,2880,137.5C3120,125,3360,125,3600,108.3C3840,92,4080,58,4320,37.5C4560,17,4800,8,5040,4.2C5280,0,5520,0,5760,12.5C6000,25,6240,50,6480,75C6720,100,6960,125,7200,150C7440,175,7680,200,7920,179.2C8160,158,8400,92,8640,58.3C8880,25,9120,25,9360,45.8C9600,67,9840,108,10080,133.3C10320,158,10560,167,10800,154.2C11040,142,11280,108,11520,79.2C11760,50,12000,25,12240,20.8C12480,17,12720,33,12960,62.5C13200,92,13440,133,13680,158.3C13920,183,14160,192,14400,170.8C14640,150,14880,100,15120,70.8C15360,42,15600,33,15840,50C16080,67,16320,108,16560,125C16800,142,17040,133,17160,129.2L17280,125L17280,250L17160,250C17040,250,16800,250,16560,250C16320,250,16080,250,15840,250C15600,250,15360,250,15120,250C14880,250,14640,250,14400,250C14160,250,13920,250,13680,250C13440,250,13200,250,12960,250C12720,250,12480,250,12240,250C12000,250,11760,250,11520,250C11280,250,11040,250,10800,250C10560,250,10320,250,10080,250C9840,250,9600,250,9360,250C9120,250,8880,250,8640,250C8400,250,8160,250,7920,250C7680,250,7440,250,7200,250C6960,250,6720,250,6480,250C6240,250,6000,250,5760,250C5520,250,5280,250,5040,250C4800,250,4560,250,4320,250C4080,250,3840,250,3600,250C3360,250,3120,250,2880,250C2640,250,2400,250,2160,250C1920,250,1680,250,1440,250C1200,250,960,250,720,250C480,250,240,250,120,250L0,250Z"/><defs><linearGradient id="sw-gradient-1" x1="0" x2="0" y1="1" y2="0"><stop stop-color="rgba(102.863, 108.678, 159.731, 1)" offset="0%"/><stop stop-color="rgba(67.238, 167.128, 253.079, 1)" offset="100%"/></linearGradient></defs><path style="transform:translate(0, 50px); opacity:0.9" fill="url(#sw-gradient-1)" d="M0,50L120,66.7C240,83,480,117,720,129.2C960,142,1200,133,1440,112.5C1680,92,1920,58,2160,70.8C2400,83,2640,142,2880,170.8C3120,200,3360,200,3600,170.8C3840,142,4080,83,4320,70.8C4560,58,4800,92,5040,125C5280,158,5520,192,5760,183.3C6000,175,6240,125,6480,91.7C6720,58,6960,42,7200,29.2C7440,17,7680,8,7920,33.3C8160,58,8400,117,8640,150C8880,183,9120,192,9360,166.7C9600,142,9840,83,10080,62.5C10320,42,10560,58,10800,70.8C11040,83,11280,92,11520,83.3C11760,75,12000,50,12240,54.2C12480,58,12720,92,12960,91.7C13200,92,13440,58,13680,75C13920,92,14160,158,14400,183.3C14640,208,14880,192,15120,166.7C15360,142,15600,108,15840,87.5C16080,67,16320,58,16560,45.8C16800,33,17040,17,17160,8.3L17280,0L17280,250L17160,250C17040,250,16800,250,16560,250C16320,250,16080,250,15840,250C15600,250,15360,250,15120,250C14880,250,14640,250,14400,250C14160,250,13920,250,13680,250C13440,250,13200,250,12960,250C12720,250,12480,250,12240,250C12000,250,11760,250,11520,250C11280,250,11040,250,10800,250C10560,250,10320,250,10080,250C9840,250,9600,250,9360,250C9120,250,8880,250,8640,250C8400,250,8160,250,7920,250C7680,250,7440,250,7200,250C6960,250,6720,250,6480,250C6240,250,6000,250,5760,250C5520,250,5280,250,5040,250C4800,250,4560,250,4320,250C4080,250,3840,250,3600,250C3360,250,3120,250,2880,250C2640,250,2400,250,2160,250C1920,250,1680,250,1440,250C1200,250,960,250,720,250C480,250,240,250,120,250L0,250Z"/><defs><linearGradient id="sw-gradient-2" x1="0" x2="0" y1="1" y2="0"><stop stop-color="rgba(17, 103, 177, 1)" offset="0%"/><stop stop-color="rgba(17, 103, 177, 1)" offset="100%"/></linearGradient></defs><path style="transform:translate(0, 100px); opacity:0.8" fill="url(#sw-gradient-2)" d="M0,75L120,87.5C240,100,480,125,720,125C960,125,1200,100,1440,87.5C1680,75,1920,75,2160,62.5C2400,50,2640,25,2880,16.7C3120,8,3360,17,3600,33.3C3840,50,4080,75,4320,104.2C4560,133,4800,167,5040,187.5C5280,208,5520,217,5760,187.5C6000,158,6240,92,6480,79.2C6720,67,6960,108,7200,141.7C7440,175,7680,200,7920,175C8160,150,8400,75,8640,58.3C8880,42,9120,83,9360,91.7C9600,100,9840,75,10080,70.8C10320,67,10560,83,10800,87.5C11040,92,11280,83,11520,75C11760,67,12000,58,12240,50C12480,42,12720,33,12960,45.8C13200,58,13440,92,13680,87.5C13920,83,14160,42,14400,33.3C14640,25,14880,50,15120,50C15360,50,15600,25,15840,50C16080,75,16320,150,16560,166.7C16800,183,17040,142,17160,120.8L17280,100L17280,250L17160,250C17040,250,16800,250,16560,250C16320,250,16080,250,15840,250C15600,250,15360,250,15120,250C14880,250,14640,250,14400,250C14160,250,13920,250,13680,250C13440,250,13200,250,12960,250C12720,250,12480,250,12240,250C12000,250,11760,250,11520,250C11280,250,11040,250,10800,250C10560,250,10320,250,10080,250C9840,250,9600,250,9360,250C9120,250,8880,250,8640,250C8400,250,8160,250,7920,250C7680,250,7440,250,7200,250C6960,250,6720,250,6480,250C6240,250,6000,250,5760,250C5520,250,5280,250,5040,250C4800,250,4560,250,4320,250C4080,250,3840,250,3600,250C3360,250,3120,250,2880,250C2640,250,2400,250,2160,250C1920,250,1680,250,1440,250C1200,250,960,250,720,250C480,250,240,250,120,250L0,250Z"/></svg>